<?xml version="1.0" encoding="UTF-8" standalone="no"?>
<!-- Created with Inkscape (http://www.inkscape.org/) -->

<svg
   version="1.1"
   id="svg302"
   width="165.717"
   height="102.51617"
   viewBox="0 0 165.71699 102.51619"
   sodipodi:docname="logo.png"
   xml:space="preserve"
   inkscape:export-filename="logo4.svg"
   inkscape:export-xdpi="96"
   inkscape:export-ydpi="96"
   xmlns:inkscape="http://www.inkscape.org/namespaces/inkscape"
   xmlns:sodipodi="http://sodipodi.sourceforge.net/DTD/sodipodi-0.dtd"
   xmlns="http://www.w3.org/2000/svg"
   xmlns:svg="http://www.w3.org/2000/svg"><defs
     id="defs306" /><sodipodi:namedview
     id="namedview304"
     pagecolor="#ffffff"
     bordercolor="#000000"
     borderopacity="0.25"
     inkscape:showpageshadow="2"
     inkscape:pageopacity="0.0"
     inkscape:pagecheckerboard="0"
     inkscape:deskcolor="#d1d1d1"
     showgrid="false"
     showguides="false" /><g
     inkscape:groupmode="layer"
     inkscape:label="Image"
     id="g308"
     transform="translate(0.65024645,4.3388242)"><g
       id="g2728"><text
         xml:space="preserve"
         style="font-size:48px;font-family:Palatino;-inkscape-font-specification:Palatino;fill:#7653fc;fill-opacity:1;stroke:#7653fc;stroke-width:1.24724;stroke-dasharray:none;stroke-opacity:1"
         x="5.3391504"
         y="28.287184"
         id="text2147"
         transform="rotate(11.973942)"><tspan
           sodipodi:role="line"
           id="tspan2145"
           x="5.3391504"
           y="28.287184">Best</tspan></text><path
         class="st0"
         d="m 99.185018,50.702893 5.686132,-0.741861 c -0.5642,-0.107183 -1.05204,-0.683254 -1.14838,-1.42166 L 98.706898,10.094287 C 98.592718,9.2191367 99.067135,8.4271237 99.759636,8.3367744 L 150.96198,1.6564805 c 0.69252,-0.09035 1.35426,0.5534306 1.46844,1.4285817 l 5.01498,38.4382448 c 0.0963,0.738408 -0.22196,1.419656 -0.74521,1.668714 l 6.01618,-0.784921 c 0.81154,-0.105879 1.58582,0.641429 1.7205,1.673831 v 0 c 0.13381,1.025568 -0.41652,1.952648 -1.23345,2.059234 L 99.671172,54.429119 C 98.859646,54.535 98.085358,53.787693 97.950658,52.755288 v 0 c -0.133804,-1.025566 0.417388,-1.945816 1.23436,-2.052395 z m 10.258242,-36.001543 13.19011,-1.720895 2.60829,19.991718 c 0.0461,0.564171 -0.5202,0.651963 -1.14141,0.698244 l -12.18923,1.590309 c -0.85482,0.111527 -1.43766,1.084571 -1.29672,2.164834 0.14095,1.080265 0.95393,1.871195 1.80875,1.759669 l 12.75189,-1.663719 -0.27208,-2.085321 1.21188,-0.158113 0.34611,2.6528 c 0.0633,0.485436 -0.19964,0.916087 -0.57831,0.965502 l -13.21177,1.723718 c -1.44284,0.918361 -2.90497,-0.504086 -3.15831,-2.445826 l -2.52712,-19.36954 c -0.26101,-2.045039 0.84025,-3.89233 2.45792,-4.10338 z m 23.16028,22.233405 c -0.43823,0.05717 -0.85863,-0.381676 -0.93624,-0.976506 -0.0776,-0.594829 0.21612,-1.126849 0.65435,-1.184022 l 15.84655,-2.067476 c 0.4382,-0.05717 0.85863,0.381673 0.93624,0.976503 0.0776,0.594828 -0.21612,1.126858 -0.65436,1.184026 z m -3.19199,-23.580054 17.45876,-2.277821 c 0.37331,-0.0487 0.73254,0.300776 0.7941,0.772537 l 0.40141,3.076701 c 0.0607,0.464924 -0.19596,0.901719 -0.5693,0.950417 l -17.45877,2.277818 c -0.36791,0.048 -0.73165,-0.29394 -0.79409,-0.772537 l -0.40141,-3.076701 c -0.0624,-0.478598 0.19596,-0.901716 0.5693,-0.950414 z m 1.61666,11.505711 c -0.43822,0.05718 -0.85862,-0.381673 -0.93624,-0.976503 -0.0776,-0.59483 0.21613,-1.12685 0.65436,-1.184024 l 14.7591,-1.925595 c 0.4382,-0.05718 0.85862,0.381672 0.93623,0.976501 0.0776,0.594829 -0.21613,1.126857 -0.65436,1.184026 z m 0.78765,6.037169 c -0.43821,0.05718 -0.85861,-0.381671 -0.93621,-0.976499 -0.0776,-0.594829 0.21612,-1.126852 0.65434,-1.184027 l 12.45974,-1.625604 c 0.43824,-0.05717 0.85863,0.381675 0.93624,0.976504 0.0776,0.594828 -0.21613,1.126851 -0.65436,1.184024 z m -21.44707,-13.361749 0.49233,-0.06423 c 0.24889,-0.03247 0.48212,0.152664 0.51513,0.405629 l 1.90626,14.610909 c 0.0331,0.252985 -0.14485,0.49176 -0.39381,0.524217 l -0.49233,0.06424 c -0.24886,0.03247 -0.4821,-0.152661 -0.5151,-0.405635 l -1.90626,-14.610909 c -0.0339,-0.259809 0.14485,-0.491757 0.39378,-0.524212 z m -9.39086,-6.819982 49.58469,-6.4692383 4.83834,37.0844943 -49.58467,6.46924 z m 28.82256,36.701948 4.14963,-0.5414 c 0.38953,-0.05082 0.76138,0.310921 0.8256,0.803192 v 0 c 0.0642,0.492272 -0.20241,0.937305 -0.59188,0.988131 l -4.14965,0.541399 c -0.38953,0.05082 -0.76136,-0.310922 -0.82559,-0.803194 v 0 c -0.0651,-0.499108 0.20241,-0.937298 0.59189,-0.988128 z"
         id="path472"
         style="fill:#7653fc;fill-opacity:0.00607288;stroke:#7653fc;stroke-width:1.22052;stroke-dasharray:none;stroke-opacity:1" /><text
         xml:space="preserve"
         style="font-size:41.6206px;font-family:Palatino;-inkscape-font-specification:Palatino;display:inline;fill:#7653fc;fill-opacity:0.00607288;stroke:#7653fc;stroke-width:1.31702;stroke-dasharray:none;stroke-opacity:1"
         x="15.161441"
         y="19.804108"
         id="text1825"
         transform="matrix(0.95946419,0.1439364,-0.1244375,1.0235806,0,0)"><tspan
           sodipodi:role="line"
           id="tspan1823"
           x="15.161441"
           y="19.804108"
           style="stroke-width:1.31702;stroke-dasharray:none" /><tspan
           sodipodi:role="line"
           x="15.161441"
           y="71.829857"
           id="tspan1827"
           style="stroke-width:1.31702;stroke-dasharray:none">Courses</tspan></text></g></g><style
     type="text/css"
     id="style470"><![CDATA[
	.st0{fill-rule:evenodd;clip-rule:evenodd;}
]]></style></svg>
